<svg id="svg" version="1.1" xmlns="http://www.w3.org/2000/svg" style="display: block;" viewBox="0 0 200 200"><path d="M0 0 C66 0 132 0 200 0 C200 66 200 132 200 200 C134 200 68 200 0 200 C0 134 0 68 0 0 Z " transform="translate(0,0)" style="fill: #FEFEFE;"/><path d="M0 0 C32.01 0 64.02 0 97 0 C97 13.2 97 26.4 97 40 C64.99 40 32.98 40 0 40 C0 26.8 0 13.6 0 0 Z " transform="translate(15,75)" style="fill: #185498;"/><path d="M0 0 C1.98 0 3.96 0 6 0 C8.08386889 5.27913453 8.57910004 10.39538469 9 16 C9.66 16 10.32 16 11 16 C11.13277344 14.92878906 11.26554687 13.85757813 11.40234375 12.75390625 C11.5805056 11.35674231 11.75890319 9.95960841 11.9375 8.5625 C12.02451172 7.85544922 12.11152344 7.14839844 12.20117188 6.41992188 C12.88671875 1.11328125 12.88671875 1.11328125 14 0 C15.98 0 17.96 0 20 0 C20 9.24 20 18.48 20 28 C18.35 28 16.7 28 15 28 C14.67 24.37 14.34 20.74 14 17 C13.34 20.3 12.68 23.6 12 27 C10.68 27 9.36 27 8 27 C7.34 24.36 6.68 21.72 6 19 C5.67 21.97 5.34 24.94 5 28 C3.35 28 1.7 28 0 28 C0 18.76 0 9.52 0 0 Z " transform="translate(20,81)" style="fill: #DFEDF7;"/><path d="M0 0 C3.96 0 7.92 0 12 0 C12.08076726 3.60461295 12.14038951 7.20742563 12.1875 10.8125 C12.22520508 12.34874023 12.22520508 12.34874023 12.26367188 13.91601562 C12.27817383 15.39038086 12.27817383 15.39038086 12.29296875 16.89453125 C12.31653442 18.25348511 12.31653442 18.25348511 12.34057617 19.63989258 C12 22 12 22 9 25 C6.03 25 3.06 25 0 25 C0 16.75 0 8.5 0 0 Z " transform="translate(119,81)" style="fill: #1B5088;"/><path d="M0 0 C1.93166016 0.01740234 1.93166016 0.01740234 3.90234375 0.03515625 C5.19269531 0.04417969 6.48304687 0.05320312 7.8125 0.0625 C8.81152344 0.07410156 9.81054688 0.08570312 10.83984375 0.09765625 C10.83984375 1.74765625 10.83984375 3.39765625 10.83984375 5.09765625 C7.20984375 5.09765625 3.57984375 5.09765625 -0.16015625 5.09765625 C-0.16015625 11.03765625 -0.16015625 16.97765625 -0.16015625 23.09765625 C2.14984375 23.09765625 4.45984375 23.09765625 6.83984375 23.09765625 C6.83984375 20.78765625 6.83984375 18.47765625 6.83984375 16.09765625 C5.84984375 16.09765625 4.85984375 16.09765625 3.83984375 16.09765625 C3.83984375 14.77765625 3.83984375 13.45765625 3.83984375 12.09765625 C6.14984375 12.09765625 8.45984375 12.09765625 10.83984375 12.09765625 C10.8666947 14.57689426 10.88660922 17.05584465 10.90234375 19.53515625 C10.91072266 20.24220703 10.91910156 20.94925781 10.92773438 21.67773438 C10.93637963 23.48459184 10.89204386 25.29153228 10.83984375 27.09765625 C9.83984375 28.09765625 9.83984375 28.09765625 6.6796875 28.1953125 C5.39191406 28.18371094 4.10414062 28.17210938 2.77734375 28.16015625 C1.48699219 28.15113281 0.19664063 28.14210938 -1.1328125 28.1328125 C-2.13183594 28.12121094 -3.13085938 28.10960938 -4.16015625 28.09765625 C-4.18901963 23.61850297 -4.20690812 19.13937334 -4.22265625 14.66015625 C-4.23103516 13.38076172 -4.23941406 12.10136719 -4.24804688 10.78320312 C-4.25126953 9.56826172 -4.25449219 8.35332031 -4.2578125 7.1015625 C-4.26304932 5.97564697 -4.26828613 4.84973145 -4.27368164 3.68969727 C-4.10676181 -0.12145946 -3.88868243 0.12016942 0 0 Z " transform="translate(63.16015625,80.90234375)" style="fill: #DCEFF7;"/><path d="M0 0 C4.95 0 9.9 0 15 0 C15 1.65 15 3.3 15 5 C11.37 5 7.74 5 4 5 C4 7.31 4 9.62 4 12 C6.64 12 9.28 12 12 12 C12 13.32 12 14.64 12 16 C9.69 16 7.38 16 5 16 C5 18.31 5 20.62 5 23 C8.3 23 11.6 23 15 23 C15 24.65 15 26.3 15 28 C10.05 28 5.1 28 0 28 C0 18.76 0 9.52 0 0 Z " transform="translate(42,81)" style="fill: #D5E6F4;"/><path d="M0 0 C1.32 0 2.64 0 4 0 C5.38529821 5.45461169 6.2396943 10.36718401 6 16 C6.66 15.67 7.32 15.34 8 15 C8.63801836 12.4684134 9.16687368 10.00160498 9.625 7.4375 C9.7590625 6.72658203 9.893125 6.01566406 10.03125 5.28320312 C10.36191847 3.52357447 10.68195767 1.76195452 11 0 C12.32 0 13.64 0 15 0 C14.49022248 6.42319673 13.60502458 12.71908676 12.5 19.0625 C12.30410278 20.20609985 12.30410278 20.20609985 12.10424805 21.37280273 C11.12297066 26.87702934 11.12297066 26.87702934 10 28 C8.00041636 28.04080783 5.99954746 28.04254356 4 28 C3.32634616 24.27206058 2.66231022 20.54247005 2 16.8125 C1.80921875 15.75740234 1.6184375 14.70230469 1.421875 13.61523438 C1.24140625 12.59365234 1.0609375 11.57207031 0.875 10.51953125 C0.70742187 9.58214111 0.53984375 8.64475098 0.3671875 7.67895508 C0.01100934 5.08032281 -0.06645996 2.61893788 0 0 Z " transform="translate(77,81)" style="fill: #F7FDFE;"/><path d="M0 0 C0.99 0 1.98 0 3 0 C3 1.32 3 2.64 3 4 C4.32 4 5.64 4 7 4 C7.08083491 7.55673617 6.88973828 10.56815235 6 14 C6.33 14.33 6.66 14.66 7 15 C7.04063832 16.66617115 7.042721 18.33388095 7 20 C6.01 19.34 5.02 18.68 4 18 C3.67 22.95 3.34 27.9 3 33 C1.68 33 0.36 33 -1 33 C-1 28.71 -1 24.42 -1 20 C-2.32 20.33 -3.64 20.66 -5 21 C-5.375 18.8125 -5.375 18.8125 -5 16 C-3.05874656 14.26526288 -1.05727132 12.5954349 1 11 C1.33 10.01 1.66 9.02 2 8 C-0.64 8 -3.28 8 -6 8 C-6 6.68 -6 5.36 -6 4 C-4.02 4 -2.04 4 0 4 C0 2.68 0 1.36 0 0 Z " transform="translate(161,79)" style="fill: #275B94;"/><path d="M0 0 C1.32 0 2.64 0 4 0 C4 1.65 4 3.3 4 5 C6.31 5 8.62 5 11 5 C11 6.32 11 7.64 11 9 C6.05 9 1.1 9 -4 9 C-3.95359375 10.15757813 -3.9071875 11.31515625 -3.859375 12.5078125 C-3.82183752 14.04684906 -3.78543949 15.5859137 -3.75 17.125 C-3.69972656 18.26582031 -3.69972656 18.26582031 -3.6484375 19.4296875 C-3.55653795 24.75986122 -4.38738736 27.81146361 -8 32 C-10.75 32.875 -10.75 32.875 -13 33 C-13 31.68 -13 30.36 -13 29 C-12.35546875 28.46890625 -11.7109375 27.9378125 -11.046875 27.390625 C-7.8175796 23.61900518 -8.32415895 19.56359028 -8.25 14.75 C-8.22035156 13.81414062 -8.19070312 12.87828125 -8.16015625 11.9140625 C-8.08960196 9.60928908 -8.03683748 7.30551832 -8 5 C-5.36 5 -2.72 5 0 5 C0 3.35 0 1.7 0 0 Z " transform="translate(142,78)" style="fill: #4979AD;"/><path d="M0 0 C2.76375 -0.04125 5.5275 -0.0825 8.375 -0.125 C9.67896729 -0.15231201 9.67896729 -0.15231201 11.00927734 -0.18017578 C13.00703478 -0.19473738 15.00467217 -0.09956726 17 0 C19 2 19 2 19.1953125 5.9140625 C19.18200376 7.48449351 19.15813602 9.05486221 19.125 10.625 C19.11597656 11.42679688 19.10695312 12.22859375 19.09765625 13.0546875 C19.07406223 15.03658523 19.03819065 17.01832981 19 19 C17.68 19 16.36 19 15 19 C14.67 14.05 14.34 9.1 14 4 C10.7 3.67 7.4 3.34 4 3 C4 8.28 4 13.56 4 19 C2.68 19 1.36 19 0 19 C0 12.73 0 6.46 0 0 Z " transform="translate(169,80)" style="fill: #1E528B;"/><path d="M0 0 C1.32 0 2.64 0 4 0 C4.33 6.93 4.66 13.86 5 21 C6.32 21 7.64 21 9 21 C9 20.01 9 19.02 9 18 C10.32 18 11.64 18 13 18 C13.04254356 19.99954746 13.04080783 22.00041636 13 24 C12 25 12 25 9.93359375 25.09765625 C9.10988281 25.08605469 8.28617188 25.07445313 7.4375 25.0625 C6.61121094 25.05347656 5.78492188 25.04445313 4.93359375 25.03515625 C3.97646484 25.01775391 3.97646484 25.01775391 3 25 C2.34 23.02 1.68 21.04 1 19 C0.51789063 19.433125 0.03578125 19.86625 -0.4609375 20.3125 C-1.09257812 20.869375 -1.72421875 21.42625 -2.375 22 C-3.00148437 22.556875 -3.62796875 23.11375 -4.2734375 23.6875 C-6 25 -6 25 -8 25 C-8 23.68 -8 22.36 -8 21 C-6.36739286 19.62517293 -4.69774938 18.29352333 -3 17 C-0.73538739 13.57162813 -0.61741809 10.29030147 -0.375 6.25 C-0.30023438 5.07953125 -0.22546875 3.9090625 -0.1484375 2.703125 C-0.09945312 1.81109375 -0.05046875 0.9190625 0 0 Z " transform="translate(176,86)" style="fill: #1B518C;"/><path d="M0 0 C0.99 0.66 1.98 1.32 3 2 C2.88610125 3.79240663 2.75852313 5.58394835 2.625 7.375 C2.55539063 8.37273437 2.48578125 9.37046875 2.4140625 10.3984375 C2 13 2 13 0 15 C0 13.02 0 11.04 0 9 C-2.64 9 -5.28 9 -8 9 C-8 10.32 -8 11.64 -8 13 C-7.01 13 -6.02 13 -5 13 C-5 15.31 -5 17.62 -5 20 C-7.31 20 -9.62 20 -12 20 C-12 14.06 -12 8.12 -12 2 C-8.04 2 -4.08 2 0 2 C0 1.34 0 0.68 0 0 Z " transform="translate(75,84)" style="fill: #265E9F;"/><path d="M0 0 C1.65 0 3.3 0 5 0 C5 1.32 5 2.64 5 4 C6.32 4 7.64 4 9 4 C9 9.61 9 15.22 9 21 C10.32 21 11.64 21 13 21 C13 15.72 13 10.44 13 5 C16.3 5 19.6 5 23 5 C23 5.33 23 5.66 23 6 C20.03 6 17.06 6 14 6 C14 10.62 14 15.24 14 20 C14.66 20.33 15.32 20.66 16 21 C12 27.57142857 12 27.57142857 8 29 C8 29.66 8 30.32 8 31 C6.02 31.99 6.02 31.99 4 33 C4 28.05 4 23.1 4 18 C4.99 18.66 5.98 19.32 7 20 C6.79375 19.01 6.5875 18.02 6.375 17 C5.72137698 12.62162112 6.74542211 9.20652588 8 5 C6.68 5 5.36 5 4 5 C4 3.68 4 2.36 4 1 C3.01 1 2.02 1 1 1 C0.67 2.32 0.34 3.64 0 5 C0 3.35 0 1.7 0 0 Z " transform="translate(160,78)" style="fill: #DAECF6;"/><path d="M0 0 C3.3 0 6.6 0 10 0 C10 4.95 10 9.9 10 15 C11.32 15.33 12.64 15.66 14 16 C13.67 16.99 13.34 17.98 13 19 C13.99 19 14.98 19 16 19 C16 21.31 16 23.62 16 26 C15.67 26 15.34 26 15 26 C15 24.02 15 22.04 15 20 C13.68 20 12.36 20 11 20 C11 20.99 11 21.98 11 23 C9.68 23 8.36 23 7 23 C6.06145994 15.96094956 5.89191968 9.09727428 6 2 C4.68 2 3.36 2 2 2 C2 5.96 2 9.92 2 14 C1.34 14 0.68 14 0 14 C0 9.38 0 4.76 0 0 Z " transform="translate(174,84)" style="fill: #ECF8FC;"/><path d="M0 0 C0.33 0 0.66 0 1 0 C1 8.58 1 17.16 1 26 C0.34 26 -0.32 26 -1 26 C-1 24.35 -1 22.7 -1 21 C-4.3 21 -7.6 21 -11 21 C-11 18.69 -11 16.38 -11 14 C-8.36 14 -5.72 14 -3 14 C-2.67 12.68 -2.34 11.36 -2 10 C-1.67 10.33 -1.34 10.66 -1 11 C-0.67 7.37 -0.34 3.74 0 0 Z " transform="translate(58,83)" style="fill: #144F92;"/><path d="M0 0 C1.32 0 2.64 0 4 0 C4 9.24 4 18.48 4 28 C2.68 28 1.36 28 0 28 C0 18.76 0 9.52 0 0 Z " transform="translate(95,81)" style="fill: #E5F9FD;"/><path d="M0 0 C1.32 0 2.64 0 4 0 C4 9.24 4 18.48 4 28 C2.68 28 1.36 28 0 28 C0 18.76 0 9.52 0 0 Z " transform="translate(102,81)" style="fill: #EEF9FC;"/><path d="M0 0 C1.32 0 2.64 0 4 0 C4 3.33333333 4 6.66666667 4 10 C4.01160156 10.66257812 4.02320312 11.32515625 4.03515625 12.0078125 C4.06095117 14.00507614 4.03221243 16.00282955 4 18 C3 19 3 19 -2 19 C-2 14.71 -2 10.42 -2 6 C-1.34 6 -0.68 6 0 6 C0 4.02 0 2.04 0 0 Z " transform="translate(123,85)" style="fill: #124C8B;"/><path d="M0 0 C3.63 0 7.26 0 11 0 C11 0.33 11 0.66 11 1 C8.69 1.33 6.38 1.66 4 2 C4 4.64 4 7.28 4 10 C3.34 10 2.68 10 2 10 C2 14.29 2 18.58 2 23 C4.64 23 7.28 23 10 23 C9.67 23.66 9.34 24.32 9 25 C6.03 25 3.06 25 0 25 C0 16.75 0 8.5 0 0 Z " transform="translate(119,81)" style="fill: #376595;"/><path d="M0 0 C2.64 0 5.28 0 8 0 C8 0.33 8 0.66 8 1 C5.69 1 3.38 1 1 1 C1.66 1.66 2.32 2.32 3 3 C3.5016861 6.24796778 3.41668181 9.53016477 3.4375 12.8125 C3.48680664 14.16698242 3.48680664 14.16698242 3.53710938 15.54882812 C3.57456695 20.18335115 3.50448648 22.32370177 0.66015625 26.13671875 C-2 28 -2 28 -5 28 C-5 26.68 -5 25.36 -5 24 C-4.35546875 23.46890625 -3.7109375 22.9378125 -3.046875 22.390625 C0.1824204 18.61900518 -0.32415895 14.56359028 -0.25 9.75 C-0.22035156 8.81414062 -0.19070312 7.87828125 -0.16015625 6.9140625 C-0.08960196 4.60928908 -0.03683748 2.30551832 0 0 Z " transform="translate(134,83)" style="fill: #194C84;"/><path d="M0 0 C2.31 0 4.62 0 7 0 C7 4.95 7 9.9 7 15 C-0.875 13.875 -0.875 13.875 -4 11 C-1.69 11 0.62 11 3 11 C3 8.69 3 6.38 3 4 C2.01 4 1.02 4 0 4 C0 2.68 0 1.36 0 0 Z " transform="translate(67,93)" style="fill: #ECF7FC;"/><path d="M0 0 C0.99 0 1.98 0 3 0 C3 8.58 3 17.16 3 26 C2.01 26 1.02 26 0 26 C0 17.42 0 8.84 0 0 Z " transform="translate(99,82)" style="fill: #275992;"/><path d="M0 0 C1.32 0 2.64 0 4 0 C5.26305335 5.07476794 6.27036084 9.72796354 6 15 C5.34 15 4.68 15 4 15 C4 17.31 4 19.62 4 22 C2.02137273 18.59975397 1.43933337 15.43669339 0.875 11.5625 C0.70742187 10.45003906 0.53984375 9.33757812 0.3671875 8.19140625 C0.04822056 5.4191085 -0.07289361 2.7855773 0 0 Z " transform="translate(77,81)" style="fill: #E3F2F9;"/><path d="M0 0 C0.33 0 0.66 0 1 0 C1 1.98 1 3.96 1 6 C1.33 4.35 1.66 2.7 2 1 C4.97 1 7.94 1 11 1 C11.6875 4.3125 11.6875 4.3125 12 8 C10.5625 9.9375 10.5625 9.9375 9 11 C8.67 9.68 8.34 8.36 8 7 C5.36 7 2.72 7 0 7 C0 4.69 0 2.38 0 0 Z " transform="translate(46,86)" style="fill: #316AAD;"/><path d="M0 0 C0.99 0 1.98 0 3 0 C3 1.32 3 2.64 3 4 C5.31 4 7.62 4 10 4 C10 4.99 10 5.98 10 7 C5.05 7 0.1 7 -5 7 C-5 6.67 -5 6.34 -5 6 C-3.35 5.67 -1.7 5.34 0 5 C0 3.35 0 1.7 0 0 Z M1 1 C2 4 2 4 2 4 Z " transform="translate(143,79)" style="fill: #134983;"/><path d="M0 0 C1.65 0 3.3 0 5 0 C5 1.32 5 2.64 5 4 C6.32 4 7.64 4 9 4 C9 9.28 9 14.56 9 20 C5.81778914 13.63557828 6.16132462 11.59759991 8 5 C6.68 5 5.36 5 4 5 C4 3.68 4 2.36 4 1 C3.01 1 2.02 1 1 1 C0.67 2.32 0.34 3.64 0 5 C0 3.35 0 1.7 0 0 Z " transform="translate(160,78)" style="fill: #C2E1EF;"/><path d="M0 0 C1.32 0 2.64 0 4 0 C3.67 3.3 3.34 6.6 3 10 C1.68 9.67 0.36 9.34 -1 9 C-0.67 6.03 -0.34 3.06 0 0 Z " transform="translate(88,81)" style="fill: #DEF1FB;"/><path d="M0 0 C0.99 1.485 0.99 1.485 2 3 C2.66 2.67 3.32 2.34 4 2 C4 5.3 4 8.6 4 12 C3.01 12.33 2.02 12.66 1 13 C0.67 8.71 0.34 4.42 0 0 Z " transform="translate(82,84)" style="fill: #225794;"/><path d="M0 0 C1.32 0 2.64 0 4 0 C4 2.31 4 4.62 4 7 C2.68 7 1.36 7 0 7 C0 4.69 0 2.38 0 0 Z " transform="translate(123,95)" style="fill: #CFECFB;"/><path d="M0 0 C1.32 0 2.64 0 4 0 C4 1.98 4 3.96 4 6 C3.01 6.495 3.01 6.495 2 7 C1.34 6.34 0.68 5.68 0 5 C-0.99 4.34 -1.98 3.68 -3 3 C-2.01 3 -1.02 3 0 3 C0 2.01 0 1.02 0 0 Z " transform="translate(185,104)" style="fill: #2B5B8F;"/><path d="M0 0 C0.66 0 1.32 0 2 0 C2.33 3.3 2.66 6.6 3 10 C2.01 10 1.02 10 0 10 C0 6.7 0 3.4 0 0 Z " transform="translate(65,93)" style="fill: #15549D;"/><path d="M0 0 C1.32 0 2.64 0 4 0 C4 1.98 4 3.96 4 6 C2.68 6 1.36 6 0 6 C0 4.02 0 2.04 0 0 Z " transform="translate(123,85)" style="fill: #DEF8FF;"/><path d="M0 0 C0.66 0 1.32 0 2 0 C2.33 2.31 2.66 4.62 3 7 C3.66 7 4.32 7 5 7 C5 7.99 5 8.98 5 10 C3.68 10 2.36 10 1 10 C0.67 6.7 0.34 3.4 0 0 Z " transform="translate(180,97)" style="fill: #CAE4F5;"/><path d="M0 0 C0.33 0 0.66 0 1 0 C1.04254356 1.99954746 1.04080783 4.00041636 1 6 C0 7 0 7 -3.0625 7.0625 C-4.5165625 7.0315625 -4.5165625 7.0315625 -6 7 C-6 5.68 -6 4.36 -6 3 C-5.34 3 -4.68 3 -4 3 C-4 3.66 -4 4.32 -4 5 C-2.68 5 -1.36 5 0 5 C0 3.35 0 1.7 0 0 Z " transform="translate(87,102)" style="fill: #CBE5F5;"/><path d="M0 0 C0.33 0.99 0.66 1.98 1 3 C-0.98 3.99 -0.98 3.99 -3 5 C-3 6.32 -3 7.64 -3 9 C-2.34 9.33 -1.68 9.66 -1 10 C-1.99 10 -2.98 10 -4 10 C-4 7.69 -4 5.38 -4 3 C-3.34 3 -2.68 3 -2 3 C-2 2.34 -2 1.68 -2 1 C-1.34 0.67 -0.68 0.34 0 0 Z " transform="translate(132,102)" style="fill: #E4F8FC;"/><path d="M0 0 C2.64 0 5.28 0 8 0 C7.67 1.32 7.34 2.64 7 4 C5.35 3.67 3.7 3.34 2 3 C2 2.34 2 1.68 2 1 C1.34 0.67 0.68 0.34 0 0 Z " transform="translate(121,82)" style="fill: #1A5391;"/><path d="M0 0 C1.32 0 2.64 0 4 0 C4 1.32 4 2.64 4 4 C2.68 4.33 1.36 4.66 0 5 C0 3.35 0 1.7 0 0 Z " transform="translate(77,81)" style="fill: #D2ECF9;"/><path d="M0 0 C1.98 0 3.96 0 6 0 C5.67 0.99 5.34 1.98 5 3 C4.01 3.33 3.02 3.66 2 4 C1.34 4.66 0.68 5.32 0 6 C0 4.02 0 2.04 0 0 Z " transform="translate(121,91)" style="fill: #2B63A1;"/></svg>