<svg id="svg" version="1.1" xmlns="http://www.w3.org/2000/svg" style="display: block;" viewBox="0 0 248 256"><path d="M0 0 C81.84 0 163.68 0 248 0 C248 84.48 248 168.96 248 256 C166.16 256 84.32 256 0 256 C0 171.52 0 87.04 0 0 Z " transform="translate(0,0)" style="fill: #DF1158;"/><path d="M0 0 C3.45096897 0.08171046 6.90210888 0.08893691 10.3538959 0.1043303 C16.87858834 0.14461172 23.40042234 0.25110342 29.92386025 0.38187367 C38.08521484 0.54189803 46.24704158 0.61269494 54.40957522 0.68335557 C68.95802152 0.80968839 83.50023763 1.07010763 98.0482471 1.31812119 C98.0482471 40.91812119 98.0482471 80.51812119 98.0482471 121.31812119 C97.7182471 121.31812119 97.3882471 121.31812119 97.0482471 121.31812119 C96.90129397 120.20179307 96.75434085 119.08546494 96.6029346 117.93530869 C95.28319763 108.52315219 93.46868781 99.37170018 90.9857471 90.19312119 C90.728418 89.22745225 90.4710889 88.2617833 90.20596194 87.26685166 C89.95668948 86.37369248 89.70741702 85.4805333 89.45059085 84.56030869 C89.11789187 83.36703965 89.11789187 83.36703965 88.77847171 82.14966416 C88.20415826 80.11890783 88.20415826 80.11890783 86.0482471 79.31812119 C85.8626221 80.10187119 85.6769971 80.88562119 85.4857471 81.69312119 C81.95284037 90.60219034 75.68907864 98.82313801 66.7982471 102.75562119 C64.0482471 103.31812119 64.0482471 103.31812119 61.0482471 102.31812119 C59.87611061 99.77849214 60.07404628 98.15552133 60.51309085 95.38843369 C63.32218972 76.64001124 61.9172238 56.68673502 50.39590335 41.07983994 C49.72881351 40.20778916 49.72881351 40.20778916 49.0482471 39.31812119 C45.52981924 39.89927494 43.88569492 41.11419622 41.40371585 43.63452744 C40.38761233 44.65836534 40.38761233 44.65836534 39.35098147 45.70288682 C38.65295413 46.42153916 37.95492679 47.14019151 37.2357471 47.88062119 C36.54932132 48.57220323 35.86289554 49.26378526 35.15566897 49.97632432 C31.2064524 53.9853209 27.43485256 58.10706441 23.75649905 62.36475205 C20.93466677 65.59148924 17.98802118 68.69916709 15.0482471 71.81812119 C10.85840344 76.28483403 6.68679188 80.75111614 2.71621585 85.41577744 C1.3821801 86.93726553 -0.00172107 88.4149779 -1.40097165 89.87671494 C-2.24272946 90.76487901 -3.08448728 91.65304307 -3.9517529 92.56812119 C-4.7355029 93.37765244 -5.5192529 94.18718369 -6.3267529 95.02124619 C-8.19707702 97.12226987 -8.19707702 97.12226987 -7.72177243 99.28858018 C-6.42394584 102.70926263 -3.51748584 104.77381549 -0.8267529 107.13062119 C0.35881186 108.20019269 1.54371256 109.27050073 2.7279346 110.34155869 C3.29995608 110.8542833 3.87197757 111.36700791 4.46133304 111.89526963 C12.54453493 119.14279281 12.54453493 119.14279281 14.1732471 122.94312119 C13.86693071 128.76313255 9.09082759 132.79413711 5.09121585 136.61890244 C3.0482471 138.31812119 3.0482471 138.31812119 0.0482471 139.75562119 C-4.87899279 139.03706538 -7.49433463 135.71466943 -10.9517529 132.31812119 C-12.6948953 130.72724124 -14.4450364 129.14399923 -16.2017529 127.56812119 C-17.01128415 126.83077744 -17.8208154 126.09343369 -18.6548779 125.33374619 C-20.69129588 123.54668552 -22.77595154 121.92851179 -24.9517529 120.31812119 C-25.28795651 120.80989854 -25.62416013 121.30167588 -25.97055173 121.80835557 C-32.22577373 130.95705575 -38.48298717 140.1042981 -44.76962399 149.23145127 C-47.31857396 152.93433657 -49.85669749 156.64430572 -52.38534665 160.36108994 C-52.9680029 161.21638291 -53.55065915 162.07167588 -54.15097165 162.95288682 C-55.28156033 164.61320075 -56.41055411 166.27460224 -57.5376904 167.93726182 C-58.55465783 169.42974394 -59.58070648 170.91609329 -60.61728024 172.39502549 C-61.69989364 173.95516924 -62.72727982 175.55353389 -63.73690915 177.16187119 C-67.12345112 180.45882211 -70.97477407 181.34312141 -75.4517529 182.63062119 C-76.39486325 182.9162291 -77.3379736 183.20183702 -78.30966306 183.49609971 C-81.51757302 184.45899052 -84.73330403 185.39108297 -87.9517529 186.31812119 C-89.81912107 186.86001084 -89.81912107 186.86001084 -91.72421384 187.41284776 C-99.78971637 189.75128734 -107.86638604 192.04927732 -115.9517529 194.31812119 C-114.33966412 184.84760802 -112.46981859 175.4274484 -110.35238767 166.05762315 C-109.96171531 164.27940712 -109.5926882 162.49629122 -109.24594235 160.70899034 C-106.99894616 149.21177168 -104.30562799 141.93185937 -94.54606748 134.9914763 C-93.29708874 134.15205664 -92.0394823 133.32530784 -90.77290463 132.51268601 C-87.93156683 130.64894116 -85.30718437 128.54646965 -82.6392529 126.44312119 C-81.59640134 125.64519151 -80.55354978 124.84726182 -79.47909665 124.02515244 C-75.20211628 120.74998729 -70.95254335 117.4396617 -66.7017529 114.13062119 C-65.6028674 113.27524766 -65.6028674 113.27524766 -64.4817822 112.40259385 C-63.76546628 111.84491319 -63.04915036 111.28723252 -62.3111279 110.71265244 C-61.60278806 110.16302842 -60.89444821 109.6134044 -60.16464353 109.0471251 C-58.59331411 107.81939398 -57.030331 106.58094737 -55.47323728 105.33521104 C-54.26377439 104.37348985 -54.26377439 104.37348985 -53.0298779 103.39233994 C-52.2967236 102.80412461 -51.56356931 102.21590928 -50.80819821 101.60986924 C-48.9517529 100.31812119 -48.9517529 100.31812119 -46.9517529 100.31812119 C-49.35435757 95.67536556 -52.54172423 92.67325839 -56.3892529 89.25562119 C-58.08160531 87.73079073 -59.77202189 86.20455303 -61.45126462 84.66528916 C-62.71736629 83.52855812 -64.03471539 82.44929391 -65.36190915 81.38452744 C-66.9517529 79.31812119 -66.9517529 79.31812119 -67.4908154 75.93530869 C-66.82258497 71.45138564 -65.40900911 69.72540583 -62.3267529 66.44312119 C-61.46823728 65.49694932 -60.60972165 64.55077744 -59.7251904 63.57593369 C-56.58254087 61.0175514 -54.99432416 60.24933399 -50.9517529 60.31812119 C-48.3814404 61.76733994 -48.3814404 61.76733994 -45.8267529 64.00562119 C-44.88960446 64.82288682 -43.95245603 65.64015244 -42.98690915 66.48218369 C-37.80760777 71.25757115 -32.85450568 76.26135524 -27.9517529 81.31812119 C-23.95022011 79.7397904 -21.71998086 77.11987334 -18.8892529 73.94312119 C-17.90894292 72.85183272 -16.92846962 71.76069093 -15.94784665 70.66968369 C-15.45010739 70.1118419 -14.95236814 69.5540001 -14.43954587 68.97925401 C-12.13332159 66.40433606 -9.79191529 63.86215978 -7.4517529 61.31812119 C-6.5375134 60.3208876 -5.62345151 59.32349115 -4.7095654 58.32593369 C-2.85142695 56.29875351 -0.99190811 54.2728513 0.8685596 52.24780869 C5.82581045 46.84983682 10.75433102 41.42815053 15.64590335 35.97046494 C17.47532438 33.95066514 19.31561919 31.94433541 21.16934085 29.94702744 C21.70824954 29.36622422 22.24715823 28.785421 22.80239749 28.18701768 C23.85844406 27.05080128 24.91614425 25.91611887 25.97573733 24.78320909 C28.50130593 22.06649372 30.89933627 19.34413849 33.0482471 16.31812119 C32.25706806 14.31828586 32.25706806 14.31828586 31.0482471 12.31812119 C18.8972351 8.26778386 5.76164203 13.70609425 -5.1392529 19.06812119 C-15.4561122 24.35383597 -23.86582516 30.79541499 -31.76034665 39.31421494 C-33.93489146 41.30270245 -35.07566508 41.95779129 -37.9517529 42.31812119 C-40.76651963 35.99902642 -40.98460103 30.07347679 -39.1470654 23.39233994 C-38.0142529 20.44312119 -38.0142529 20.44312119 -36.59602475 17.6215117 C-34.89937227 14.35159224 -34.89937227 14.35159224 -33.66844296 10.92085862 C-26.94445059 -2.89417966 -13.60324392 -0.3766458 0 0 Z " transform="translate(149.95175290107727,-1.3181211948394775)" style="fill: #000000;"/><path d="M0 0 C34.65 0 69.3 0 105 0 C102.69583045 1.15208478 100.39051102 2.30188878 98.08203125 3.4453125 C82.23585455 11.58612012 73.77971576 22.97003326 64.8125 37.875 C56.81886563 51.00510625 56.81886563 51.00510625 52.0078125 52.703125 C50.0625 53 50.0625 53 47 53 C42.07131357 46.16343495 41.84011547 41.15411101 42 33 C41.01 33 40.02 33 39 33 C38.77183594 33.50660156 38.54367188 34.01320312 38.30859375 34.53515625 C36.85966939 37.26432422 35.19346911 39.76310391 33.47216797 42.32617188 C16.61844015 67.56881791 6.23144024 94.11009551 1 124 C0.67 124 0.34 124 0 124 C0 83.08 0 42.16 0 0 Z " transform="translate(0,0)" style="fill: #000000;"/><path d="M0 0 C0.33 0 0.66 0 1 0 C1 30.69 1 61.38 1 93 C-32.33 93 -65.66 93 -100 93 C-100 92.67 -100 92.34 -100 92 C-98.741875 91.78085938 -97.48375 91.56171875 -96.1875 91.3359375 C-64.9641505 85.65812829 -36.49746826 71.24037039 -17.74267578 44.85620117 C-8.62728789 31.38244058 -2.49692319 16.06193862 0 0 Z " transform="translate(247,163)" style="fill: #000000;"/><path d="M0 0 C0.33 0 0.66 0 1 0 C1.27972656 1.1859375 1.55945313 2.371875 1.84765625 3.59375 C5.75081493 19.58357376 10.99823191 33.74677373 21 47 C21.39670898 47.5269043 21.79341797 48.05380859 22.20214844 48.59667969 C41.57268537 73.9181341 71.07816332 86.16530733 102.03125 90.609375 C103.50078125 90.80273438 103.50078125 90.80273438 105 91 C105 91.33 105 91.66 105 92 C70.35 92 35.7 92 0 92 C0 61.64 0 31.28 0 0 Z " transform="translate(0,164)" style="fill: #000000;"/><path d="M0 0 C5.46256569 4.83005808 8.6585621 10.22732194 9.31640625 17.49609375 C9.60472902 26.88053494 8.78142956 32.73377177 2.5625 39.75 C1.716875 40.4925 0.87125 41.235 0 42 C-0.804375 42.721875 -1.60875 43.44375 -2.4375 44.1875 C-8.95560171 48.79786462 -16.3093928 48.74603495 -24 48 C-32.82827671 45.60873911 -38.31575033 39.60289754 -43 32 C-45.42015183 24.73954452 -45.16893304 15.38772975 -41.9375 8.4375 C-37.32513617 0.61597035 -31.13633684 -3.0098367 -22.6875 -5.75 C-14.22276283 -6.53741741 -7.0773005 -4.74264697 0 0 Z " transform="translate(207,147)" style="fill: #000000;"/></svg>