<svg id="svg" version="1.1" xmlns="http://www.w3.org/2000/svg" style="display: block;" viewBox="0 0 272 272"><path d="M0 0 C89.76 0 179.52 0 272 0 C272 89.76 272 179.52 272 272 C182.24 272 92.48 272 0 272 C0 182.24 0 92.48 0 0 Z " transform="translate(0,0)" style="fill: #020101;"/><path d="M0 0 C2.25430314 1.68978017 4.39312053 3.44835289 6.51171875 5.3046875 C7.43404297 6.10326172 7.43404297 6.10326172 8.375 6.91796875 C18.93347834 16.72728677 26.50338335 32.16683385 27.70043945 46.57641602 C27.77873969 48.96842608 27.78489641 51.34909388 27.76171875 53.7421875 C27.76945313 54.53689453 27.7771875 55.33160156 27.78515625 56.15039062 C27.73983099 70.07657526 27.73983099 70.07657526 23.51171875 74.3046875 C20.88671875 73.9296875 20.88671875 73.9296875 18.51171875 73.3046875 C18.52219238 72.46808594 18.53266602 71.63148438 18.54345703 70.76953125 C18.57777893 67.6310327 18.60273368 64.49263063 18.62158203 61.35400391 C18.63644754 59.34140631 18.66187575 57.32889562 18.6875 55.31640625 C18.72123564 48.60301347 18.59265057 42.70355284 16.51171875 36.3046875 C16.25132812 35.45261719 15.9909375 34.60054687 15.72265625 33.72265625 C10.22264412 19.04739024 -0.38231427 8.7615738 -14.18359375 1.78125 C-27.65895092 -4.23965427 -43.60659592 -4.97119967 -57.53515625 0.05078125 C-73.02727382 6.62878355 -84.35602317 16.69529957 -91.30078125 32.1796875 C-97.38486472 47.92200249 -96.23849161 64.20478179 -89.8046875 79.66015625 C-81.95867 95.4220371 -68.97401348 104.06624898 -53.0546875 110.25 C-43.34191277 112.93852634 -31.14841256 111.85256369 -21.2734375 110.328125 C-20.38978516 110.31652344 -20.38978516 110.31652344 -19.48828125 110.3046875 C-18.82828125 110.9646875 -18.16828125 111.6246875 -17.48828125 112.3046875 C-17.61328125 114.3046875 -17.61328125 114.3046875 -18.48828125 116.3046875 C-25.87060733 121.69946425 -40.63829051 119.85508985 -49.39453125 119.03125 C-66.25260089 116.13034841 -81.2307658 106.13764637 -91.4921875 92.67578125 C-102.03141254 77.03766548 -106.04535179 58.90614142 -102.80078125 40.37890625 C-97.82769056 21.75053738 -87.1661655 6.79120275 -70.80078125 -3.4453125 C-48.51673753 -15.95866013 -20.95824584 -14.27924442 0 0 Z " transform="translate(162.48828125,68.6953125)" style="fill: #F4C90E;"/><path d="M0 0 C2 2 2 2 2.35302734 4.64160156 C1.91014228 8.85482903 0.31577484 12.05615053 -1.6484375 15.734375 C-2.02102692 16.45361145 -2.39361633 17.1728479 -2.77749634 17.91387939 C-3.56373441 19.42619652 -4.35579731 20.93549801 -5.15332031 22.44189453 C-6.37524647 24.75046565 -7.57967432 27.06750099 -8.78125 29.38671875 C-9.54848052 30.85729228 -10.31667656 32.32736257 -11.0859375 33.796875 C-11.44746918 34.48956482 -11.80900085 35.18225464 -12.18148804 35.89593506 C-13.60456745 38.57796857 -14.84015962 40.84015962 -17 43 C-19.625 42.625 -19.625 42.625 -22 42 C-22.75 39.9375 -22.75 39.9375 -23 37 C-22.10546875 35.28515625 -22.10546875 35.28515625 -20.9375 33.5 C-19.15899766 30.72178436 -19.15899766 30.72178436 -19.375 27.4375 C-21.55639297 24.16541054 -23.69643133 21.20759802 -27 19 C-30.2862191 19 -32.19894012 19.56305825 -35.0625 21.125 C-37.67243435 22.30368003 -39.30066314 21.74981579 -42 21 C-42.33 19.35 -42.66 17.7 -43 16 C-34.33601422 11.39344418 -25.46044611 7.3516225 -16.4375 3.5 C-15.39078125 3.04254395 -14.3440625 2.58508789 -13.265625 2.11376953 C-12.26917969 1.69466309 -11.27273437 1.27555664 -10.24609375 0.84375 C-9.35591553 0.46412109 -8.4657373 0.08449219 -7.54858398 -0.30664062 C-4.59148205 -1.11114005 -2.9000819 -0.9345359 0 0 Z " transform="translate(166,130)" style="fill: #A5A5A5;"/><path d="M0 0 C5.61817728 2.80908864 9.30795492 7.00046554 12.375 12.4375 C13.21972802 15.90088488 12.76851406 18.54168674 12 22 C11.34 22.99 10.68 23.98 10 25 C8.35 24.67 6.7 24.34 5 24 C4.97421875 23.25234375 4.9484375 22.5046875 4.921875 21.734375 C4.67233043 15.7420594 4.67233043 15.7420594 2.3125 10.375 C-0.52544847 8.68757118 -2.70611999 8.14321217 -6 8 C-8.338822 9.86741748 -8.338822 9.86741748 -8 12.875 C-7.3852343 16.65029195 -5.69058419 19.59766954 -3.875 22.9375 C-0.48710937 29.50820312 -0.48710937 29.50820312 -0.6875 33.375 C-2.40286794 38.11268288 -4.49252282 40.70009544 -9 43 C-13.57053474 44.02975653 -16.92179641 43.51753772 -21.125 41.5 C-27.37074649 36.0689161 -31.65842958 31.86737849 -32.25 23.4375 C-32 20 -32 20 -30.8125 18 C-28.28318672 16.60451681 -26.73467152 17.35549476 -24 18 C-23.97421875 18.73605469 -23.9484375 19.47210938 -23.921875 20.23046875 C-23.66387035 24.66932144 -23.4455595 28.14315481 -21.375 32.125 C-18.24930028 34.59265767 -15.94476944 34.92694871 -12 35 C-9.661178 33.13258252 -9.661178 33.13258252 -10 30.125 C-10.80111098 25.28791219 -13.35894949 21.19726927 -15.72265625 16.96484375 C-17.1425142 13.66921016 -17.36735999 11.55114654 -17 8 C-12.94772718 0.47435048 -8.21084975 -1.1443693 0 0 Z " transform="translate(187,154)" style="fill: #F5CA0F;"/><path d="M0 0 C5.33802236 2.46370263 9.39064804 6.73646185 12 12 C12.62534292 15.43175992 12.78154339 18.58907809 12 22 C10.6015625 23.8125 10.6015625 23.8125 9 25 C6.8125 24.6875 6.8125 24.6875 5 24 C4.23652746 21.51871424 4.0078207 19.62460643 4.0625 17 C3.99871905 13.93851442 3.69912564 12.50397462 2 10 C-1.6441774 7.5705484 -3.71241272 7.83820425 -8 8 C-7.73625326 13.45076587 -7.09656254 17.20767825 -4.4375 22 C-1.90392816 26.73571714 -0.8525623 30.67336263 -2 36 C-4.06645221 39.46868763 -6.10191909 41.80891972 -10 43 C-15.87611891 43.68554721 -19.29862046 42.93355653 -24.171875 39.56640625 C-28.25919295 36.06423852 -31.68986284 31.57739604 -32.16796875 26.0625 C-32.17441406 25.381875 -32.18085937 24.70125 -32.1875 24 C-32.20167969 23.319375 -32.21585937 22.63875 -32.23046875 21.9375 C-32 20 -32 20 -30 17 C-27.375 16.8125 -27.375 16.8125 -25 17 C-24.39446301 19.85467438 -23.94763729 22.58646232 -23.6875 25.5 C-22.90058734 29.5061008 -21.99654578 31.2464174 -19 34 C-16.00903791 35.15196754 -16.00903791 35.15196754 -13 35 C-10.93597315 34.01951062 -10.93597315 34.01951062 -10 32 C-10.44620859 27.84738131 -12.05513772 24.80834496 -14.0625 21.1875 C-16.70864163 15.97830814 -18.09702166 12.78429605 -17 7 C-12.71977647 -0.16506284 -7.82372336 -0.83308165 0 0 Z " transform="translate(133,96)" style="fill: #A5A5A5;"/><path d="M0 0 C2.48175953 0.90746343 3.58205552 1.98293285 5.35717773 3.9284668 C5.95336914 4.57493164 6.54956055 5.22139648 7.16381836 5.88745117 C8.08130859 6.90742188 8.08130859 6.90742188 9.01733398 7.94799805 C9.62512695 8.60864258 10.23291992 9.26928711 10.85913086 9.94995117 C12.61745604 11.87140037 14.35205752 13.81157635 16.07983398 15.76049805 C16.59521729 16.32994141 17.11060059 16.89938477 17.64160156 17.48608398 C18.84876042 18.85952108 19.97293248 20.30504931 21.07983398 21.76049805 C20.89233398 24.63549805 20.89233398 24.63549805 20.07983398 26.76049805 C16.1908614 26.52480274 14.22199978 25.21537792 11.39624023 22.70581055 C10.77305908 22.15683105 10.14987793 21.60785156 9.5078125 21.04223633 C9.03657959 20.6192627 8.56534668 20.19628906 8.07983398 19.76049805 C7.64227783 20.17299805 7.20472168 20.58549805 6.75390625 21.01049805 C2.53289423 24.98686999 -1.70017995 28.94996679 -5.94116211 32.9050293 C-7.58816788 34.44922419 -9.22072128 36.00600491 -10.84594727 37.57299805 C-11.61293945 38.29487305 -12.37993164 39.01674805 -13.17016602 39.76049805 C-14.13696289 40.68862305 -14.13696289 40.68862305 -15.12329102 41.63549805 C-16.92016602 42.76049805 -16.92016602 42.76049805 -19.07641602 42.5769043 C-21.52891287 41.490947 -21.97420758 40.204224 -22.92016602 37.76049805 C-19.69967998 33.63425031 -16.30196933 30.22994751 -12.32250977 26.83862305 C-9.30070062 24.2246353 -6.36022967 21.52820326 -3.42016602 18.82299805 C-2.87932373 18.32582275 -2.33848145 17.82864746 -1.78125 17.31640625 C-0.4935229 16.13186307 0.79325842 14.94629186 2.07983398 13.76049805 C0.90044276 11.20515039 0.07111635 9.75254961 -2.04516602 7.82299805 C-3.92016602 5.76049805 -3.92016602 5.76049805 -4.17016602 3.01049805 C-4.08766602 2.26799805 -4.00516602 1.52549805 -3.92016602 0.76049805 C-1.92016602 -0.23950195 -1.92016602 -0.23950195 0 0 Z " transform="translate(207.920166015625,176.239501953125)" style="fill: #F4C90E;"/><path d="M0 0 C0 3 0 3 -2 6 C0.97 6.495 0.97 6.495 4 7 C0.99831226 10.7163753 -2.1059584 14.26217771 -5.625 17.5 C-6.17414063 18.0053125 -6.72328125 18.510625 -7.2890625 19.03125 C-9 20 -9 20 -11.1328125 19.78515625 C-13 19 -13 19 -14.25 16.9375 C-14.4975 16.298125 -14.745 15.65875 -15 15 C-11.60955398 10.65599103 -7.97012263 7.08171023 -3.76953125 3.515625 C-1.91655093 1.96792368 -1.91655093 1.96792368 0 0 Z " transform="translate(200,199)" style="fill: #F4CA0F;"/><path d="M0 0 C0.33 0.66 0.66 1.32 1 2 C-0.24282012 4.45038293 -1.52882339 6.773325 -2.9375 9.125 C-3.32357422 9.78371094 -3.70964844 10.44242188 -4.10742188 11.12109375 C-5.06446578 12.751613 -6.03132815 14.37636184 -7 16 C-10.91131361 13.14579818 -12.39056587 11.34905688 -15 7 C-10.05 4.69 -5.1 2.38 0 0 Z " transform="translate(159,137)" style="fill: #0A0A0A;"/><path d="M0 0 C0.99 0 1.98 0 3 0 C5.23082477 4.33042455 5.0472723 7.28727465 4 12 C3.01 13.485 3.01 13.485 2 15 C0.35 14.67 -1.3 14.34 -3 14 C-3.06058594 13.22914063 -3.12117187 12.45828125 -3.18359375 11.6640625 C-3.26738281 10.66117188 -3.35117188 9.65828125 -3.4375 8.625 C-3.51871094 7.62726563 -3.59992188 6.62953125 -3.68359375 5.6015625 C-3.84965626 3.02072387 -3.84965626 3.02072387 -5 1 C-3.02 1.99 -3.02 1.99 -1 3 C-0.67 2.01 -0.34 1.02 0 0 Z " transform="translate(195,164)" style="fill: #EDC410;"/><path d="M0 0 C1.32 0.33 2.64 0.66 4 1 C4.33 2.65 4.66 4.3 5 6 C6.32 6.33 7.64 6.66 9 7 C9.75 8.75 9.75 8.75 10 11 C8.0625 13.25 8.0625 13.25 6 15 C3 14 3 14 2.05078125 12.36328125 C0.5119453 8.08873693 -0.34619582 4.61594432 0 0 Z " transform="translate(174,85)" style="fill: #FACD0A;"/><path d="M0 0 C2.625 -0.1875 2.625 -0.1875 5 0 C5.5534764 2.07553648 6 3.84365964 6 6 C5.34 6 4.68 6 4 6 C4 6.66 4 7.32 4 8 C1.5625 7.1875 1.5625 7.1875 -1 6 C-1.33 5.01 -1.66 4.02 -2 3 C-1.34 2.01 -0.68 1.02 0 0 Z " transform="translate(159,70)" style="fill: #F9CC0B;"/><path d="M0 0 C3.33717549 1.3809002 5.22301036 2.8201238 7 6 C6.6875 8.25 6.6875 8.25 6 10 C2.66282451 8.6190998 0.77698964 7.1798762 -1 4 C-0.6875 1.75 -0.6875 1.75 0 0 Z " transform="translate(63,59)" style="fill: #E5BF15;"/><path d="M0 0 C0.99 0.33 1.98 0.66 3 1 C2.54177532 4.46941546 2.10868317 7.67395049 1 11 C-0.32 11 -1.64 11 -3 11 C-2.25 3.375 -2.25 3.375 0 0 Z " transform="translate(146,37)" style="fill: #EAC318;"/><path d="M0 0 C1.98 0.495 1.98 0.495 4 1 C4.33 4.3 4.66 7.6 5 11 C3.68 11 2.36 11 1 11 C0.63743142 9.5437328 0.28520207 8.08488815 -0.0625 6.625 C-0.35833984 5.40683594 -0.35833984 5.40683594 -0.66015625 4.1640625 C-1 2 -1 2 0 0 Z " transform="translate(101,37)" style="fill: #DDB81A;"/><path d="M0 0 C0 1.32 0 2.64 0 4 C-2.97 4.66 -5.94 5.32 -9 6 C-9.33 4.35 -9.66 2.7 -10 1 C-6.61981469 -0.04005702 -3.5219721 -0.08004482 0 0 Z " transform="translate(50,141)" style="fill: #E9C116;"/><path d="M0 0 C7.75 0.875 7.75 0.875 10 2 C10 3.32 10 4.64 10 6 C2.25 5.125 2.25 5.125 0 4 C0 2.68 0 1.36 0 0 Z " transform="translate(40,98)" style="fill: #E7C018;"/><path d="M0 0 C-0.5409931 3.78695173 -2.03432464 5.62745972 -5 8 C-6.32 8 -7.64 8 -9 8 C-8.66896829 4.93795671 -8.39949096 3.39949096 -6.1875 1.1875 C-4 0 -4 0 0 0 Z " transform="translate(71,177)" style="fill: #ECC316;"/><path d="M0 0 C1.32 0 2.64 0 4 0 C3.5206753 4.31392226 2.2542015 6.16569547 -1 9 C-1.99 8.67 -2.98 8.34 -4 8 C-3.40339753 4.65902615 -2.36924875 2.45699871 0 0 Z " transform="translate(183,60)" style="fill: #F2C713;"/><path d="M0 0 C3.35111834 2.23407889 4.81553956 3.26215824 5.8125 7.25 C5.874375 8.1575 5.93625 9.065 6 10 C4.35 10.33 2.7 10.66 1 11 C-0.125 6.25 -0.125 6.25 1 4 C0.60061233 1.90178785 0.60061233 1.90178785 0 0 Z " transform="translate(223,192)" style="fill: #E9C115;"/><path d="M0 0 C1.4540625 0.0309375 1.4540625 0.0309375 2.9375 0.0625 C4 1.875 4 1.875 4.9375 4.0625 C3.9375 7.0625 3.9375 7.0625 1.9375 9.0625 C-0.3102975 7.01016315 -1.0647242 6.05582739 -2.0625 3.0625 C-2.7225 2.4025 -3.3825 1.7425 -4.0625 1.0625 C-3.0625 0.0625 -3.0625 0.0625 0 0 Z " transform="translate(220.0625,191.9375)" style="fill: #FACD0B;"/><path d="M0 0 C2.6875 0.3125 2.6875 0.3125 5 1 C4.34 2.65 3.68 4.3 3 6 C0.13275314 5.42655063 -0.8614515 5.1385485 -3 3 C-1.8125 1.4375 -1.8125 1.4375 0 0 Z " transform="translate(105,179)" style="fill: #FDCE06;"/><path d="M0 0 C0 3.96130371 -1.34877125 4.82914401 -4 7.6875 C-4.7425 8.49574219 -5.485 9.30398437 -6.25 10.13671875 C-6.8275 10.75160156 -7.405 11.36648437 -8 12 C-8.66 11.67 -9.32 11.34 -10 11 C-8.52116808 9.35386588 -7.04192523 7.70810092 -5.5625 6.0625 C-4.73878906 5.14597656 -3.91507812 4.22945313 -3.06640625 3.28515625 C-1 1 -1 1 0 0 Z " transform="translate(82,72)" style="fill: #E0BC1B;"/><path d="M0 0 C-1.485 6.435 -1.485 6.435 -3 13 C-5.20080053 9.6987992 -5.21218749 9.10898842 -4.75 5.375 C-4.66234375 4.57835938 -4.5746875 3.78171875 -4.484375 2.9609375 C-4.24460937 1.99027344 -4.24460937 1.99027344 -4 1 C-2 0 -2 0 0 0 Z " transform="translate(71,100)" style="fill: #E8C017;"/><path d="M0 0 C0.99 0.33 1.98 0.66 3 1 C2.21625 1.763125 1.4325 2.52625 0.625 3.3125 C-2.07257717 5.90891805 -2.07257717 5.90891805 -4 9 C-4.33 8.01 -4.66 7.02 -5 6 C-3.59554165 3.7363436 -1.8032087 1.9791315 0 0 Z " transform="translate(190,208)" style="fill: #DAB617;"/><path d="M0 0 C-0.375 2.4375 -0.375 2.4375 -1 5 C-1.99 5.495 -1.99 5.495 -3 6 C-3.99 4.68 -4.98 3.36 -6 2 C-4 0 -4 0 0 0 Z " transform="translate(187,60)" style="fill: #E2BC14;"/><path d="M0 0 C2.475 0.495 2.475 0.495 5 1 C5.33 1.99 5.66 2.98 6 4 C4.02 4 2.04 4 0 4 C0 2.68 0 1.36 0 0 Z " transform="translate(40,98)" style="fill: #F3C912;"/><path d="M0 0 C2 1.1875 2 1.1875 4 3 C4.25 5.6875 4.25 5.6875 4 8 C3.01 7.67 2.02 7.34 1 7 C0.67 4.69 0.34 2.38 0 0 Z " transform="translate(102,40)" style="fill: #F4C910;"/></svg>